<?xml version="1.0" standalone="no"?>
<!DOCTYPE svg PUBLIC "-//W3C//DTD SVG 20010904//EN"
 "http://www.w3.org/TR/2001/REC-SVG-20010904/DTD/svg10.dtd">
<svg version="1.0" xmlns="http://www.w3.org/2000/svg"
 width="96.000000pt" height="94.000000pt" viewBox="0 0 96.000000 94.000000"
 preserveAspectRatio="xMidYMid meet">
<metadata>
Created by potrace 1.16, written by Peter Selinger 2001-2019
</metadata>
<g transform="translate(0.000000,94.000000) scale(0.036782,-0.026257)"
fill="#000000" stroke="none">
<path d="M1260 3503 c-16 -32 -42 -78 -56 -103 -26 -43 -85 -147 -126 -220
-11 -19 -44 -76 -74 -127 -30 -51 -54 -95 -54 -98 0 -4 -9 -19 -19 -34 -11
-14 -30 -47 -44 -71 -33 -61 -140 -250 -250 -440 -11 -19 -37 -64 -57 -100
-20 -36 -53 -92 -72 -125 -19 -33 -40 -69 -46 -80 -6 -11 -46 -81 -88 -155
-43 -74 -93 -162 -112 -195 -19 -33 -45 -78 -57 -100 -12 -22 -41 -74 -65
-115 -23 -41 -53 -93 -65 -115 -13 -22 -35 -60 -49 -85 -49 -85 -65 -80 270
-80 l295 0 51 108 c28 59 63 134 78 167 15 33 52 112 82 175 30 63 67 141 82
173 14 31 38 83 52 115 15 31 54 116 88 187 34 72 109 232 166 357 58 126 107
228 110 228 3 0 52 -102 110 -228 57 -125 132 -285 166 -357 34 -71 73 -155
86 -185 63 -137 84 -182 136 -290 30 -63 67 -142 82 -175 15 -33 50 -108 78
-167 l51 -108 300 0 c185 0 301 4 301 10 0 5 -13 31 -29 58 -15 26 -39 68 -53
93 -25 44 -87 152 -130 226 -12 21 -38 67 -58 103 -20 36 -54 94 -75 130 -63
109 -76 131 -140 245 -34 61 -79 139 -100 175 -21 36 -49 85 -63 110 -13 25
-41 74 -62 110 -21 36 -47 81 -58 100 -11 19 -37 64 -57 100 -21 36 -52 90
-68 120 -16 30 -33 60 -37 65 -4 6 -19 30 -32 55 -23 42 -192 337 -252 440
-14 25 -40 71 -56 103 -17 31 -35 57 -40 57 -5 0 -23 -26 -40 -57z"/>
<path d="M644 1138 c13 -24 40 -72 61 -108 20 -36 46 -81 57 -100 11 -19 37
-64 58 -100 20 -36 49 -85 62 -110 14 -25 43 -74 63 -110 21 -36 51 -90 68
-120 16 -30 38 -67 48 -82 11 -14 19 -28 19 -30 0 -3 32 -60 72 -129 39 -68
87 -152 107 -186 19 -35 38 -63 41 -63 4 0 21 26 39 58 35 63 60 108 132 230
27 46 49 86 49 89 0 3 8 17 19 31 10 15 32 52 48 82 17 30 47 84 68 120 20 36
49 85 63 110 13 25 42 74 62 110 21 36 47 81 58 100 11 19 37 64 57 100 21 36
48 84 61 108 l23 42 -679 0 -679 0 23 -42z"/>
</g>
</svg>
